<?xml version="1.0" encoding="utf-8"?>
<!-- Generator: Adobe Illustrator 23.0.0, SVG Export Plug-In . SVG Version: 6.00 Build 0)  -->
<svg version="1.1" id="Layer_1" xmlns="http://www.w3.org/2000/svg" xmlns:xlink="http://www.w3.org/1999/xlink" x="0px" y="0px"
	 viewBox="0 0 128 128" style="enable-background:new 0 0 128 128;" xml:space="preserve">
<style type="text/css">
	.st0{fill:#fff;}
</style>
<path class="st0" d="M117.97,24.46H10.03c-0.84,0-1.53-0.68-1.53-1.53v-2.8c0-0.84,0.68-1.53,1.53-1.53h107.95
	c0.84,0,1.53,0.68,1.53,1.53v2.8C119.5,23.78,118.82,24.46,117.97,24.46z"/>
<path class="st0" d="M117.97,66.96H10.03c-0.84,0-1.53-0.68-1.53-1.53v-2.95c0-0.84,0.68-1.53,1.53-1.53h107.95
	c0.84,0,1.53,0.68,1.53,1.53v2.95C119.5,66.28,118.82,66.96,117.97,66.96z"/>
<path class="st0" d="M117.97,109.4H10.03c-0.84,0-1.53-0.68-1.53-1.53v-2.95c0-0.84,0.68-1.53,1.53-1.53h107.95
	c0.84,0,1.53,0.68,1.53,1.53v2.95C119.5,108.71,118.82,109.4,117.97,109.4z"/>
</svg>
