<?xml version="1.0" encoding="utf-8"?>
<!-- Generator: Adobe Illustrator 23.0.0, SVG Export Plug-In . SVG Version: 6.00 Build 0)  -->
<svg version="1.1" id="Layer_1" xmlns="http://www.w3.org/2000/svg" xmlns:xlink="http://www.w3.org/1999/xlink" x="0px" y="0px"
	 viewBox="0 0 24 24" style="enable-background:new 0 0 24 24;" xml:space="preserve">
<style type="text/css">
	.st0{fill:#fff;}
</style>
<path class="st0" d="M9.2,0L8.6,3c-1,0.4-1.9,0.9-2.7,1.5l-3-1L0,8.4l2.4,2C2.3,11,2.2,11.5,2.2,12c0,0.5,0,1,0.1,1.5v0l-2.4,2
	l2.9,4.8l3-1c0.8,0.7,1.7,1.2,2.7,1.5l0.6,3h5.7l0.6-3c1-0.4,1.9-0.9,2.7-1.5l3,1l2.8-4.8l-2.4-2c0.1-0.5,0.1-1.1,0.1-1.5
	c0-0.5,0-1-0.1-1.5v0l2.4-2l-2.9-4.8l-3,1c-0.8-0.7-1.7-1.2-2.7-1.5l-0.6-3H9.2z M11.2,2.4h1.7l0.5,2.4l1.3,0.5
	c0.8,0.3,1.5,0.7,2.1,1.2l1.1,0.8L20,6.5l0.8,1.4L19,9.5l0.2,1.3v0c0.1,0.4,0.1,0.8,0.1,1.2s0,0.7-0.1,1.2L19,14.5l1.9,1.6L20,17.5
	l-2.3-0.8l-1.1,0.9c-0.6,0.5-1.3,0.9-2.1,1.2h0l-1.3,0.5l-0.5,2.4h-1.7l-0.5-2.4l-1.3-0.5c-0.8-0.3-1.5-0.7-2.1-1.2l-1.1-0.8L4,17.5
	l-0.8-1.4L5,14.5l-0.2-1.3v0c-0.1-0.5-0.1-0.8-0.1-1.2c0-0.3,0-0.7,0.1-1.2L5,9.5L3.1,7.9L4,6.5l2.3,0.8l1.1-0.9
	C8,5.9,8.6,5.6,9.4,5.3l1.3-0.5L11.2,2.4z M12,7.2c-2.7,0-4.9,2.2-4.9,4.8s2.2,4.8,4.9,4.8s4.9-2.2,4.9-4.8S14.7,7.2,12,7.2z
	 M12,9.6c1.4,0,2.4,1.1,2.4,2.4s-1.1,2.4-2.4,2.4S9.6,13.3,9.6,12S10.6,9.6,12,9.6z"/>
</svg>
