<?xml version="1.0" encoding="utf-8"?>
<!-- Generator: Adobe Illustrator 23.0.0, SVG Export Plug-In . SVG Version: 6.00 Build 0)  -->
<svg version="1.1" id="Layer_1" xmlns="http://www.w3.org/2000/svg" xmlns:xlink="http://www.w3.org/1999/xlink" x="0px" y="0px"
	 viewBox="0 0 48 48" style="enable-background:new 0 0 48 48;" xml:space="preserve">
<g>
	<path d="M27.07,4.67L27.07,4.67L27.07,4.67 M24,10.88l3.61,7.32l0.93,1.89l2.08,0.3l8.08,1.17l-5.85,5.7l-1.51,1.47l0.36,2.07
		l1.38,8.05l-7.23-3.8L24,34.07l-1.86,0.98l-7.23,3.8l1.38-8.05l0.36-2.07l-1.51-1.47l-5.85-5.7l8.08-1.17l2.08-0.3l0.93-1.89
		L24,10.88 M24,2.57c-0.21,0-0.41,0.11-0.52,0.32L16.8,16.43L1.86,18.6c-0.48,0.07-0.67,0.65-0.32,0.99l10.81,10.54L9.8,45
		c-0.06,0.37,0.23,0.68,0.57,0.68c0.09,0,0.18-0.02,0.27-0.07L24,38.59l13.36,7.02c0.09,0.05,0.18,0.07,0.27,0.07
		c0.34,0,0.64-0.3,0.57-0.68l-2.55-14.88l10.81-10.54c0.34-0.34,0.15-0.92-0.32-0.99L31.2,16.43L24.52,2.9
		C24.41,2.68,24.21,2.57,24,2.57L24,2.57z"/>
</g>
</svg>
